<?xml version="1.0" encoding="UTF-8" standalone="no"?>
<svg
   width="16"
   height="16"
   version="1.1"
   id="svg6"
   sodipodi:docname="profile.svg"
   inkscape:version="1.4.4 (dcaf3e7d9e, 2026-05-05)"
   viewBox="0 0 16 16"
   xml:space="preserve"
   inkscape:export-filename="houtarou.png"
   inkscape:export-xdpi="2400"
   inkscape:export-ydpi="2400"
   xmlns:inkscape="http://www.inkscape.org/namespaces/inkscape"
   xmlns:sodipodi="http://sodipodi.sourceforge.net/DTD/sodipodi-0.dtd"
   xmlns="http://www.w3.org/2000/svg"
   xmlns:svg="http://www.w3.org/2000/svg"><defs
     id="defs6" /><sodipodi:namedview
     id="namedview6"
     pagecolor="#ffffff"
     bordercolor="#111111"
     borderopacity="1"
     inkscape:showpageshadow="0"
     inkscape:pageopacity="0"
     inkscape:pagecheckerboard="1"
     inkscape:deskcolor="#d1d1d1"
     showgrid="true"
     inkscape:zoom="45.254834"
     inkscape:cx="4.0106213"
     inkscape:cy="9.2144852"
     inkscape:window-width="1920"
     inkscape:window-height="1011"
     inkscape:window-x="0"
     inkscape:window-y="0"
     inkscape:window-maximized="1"
     inkscape:current-layer="svg6"><inkscape:grid
       id="grid2"
       units="px"
       originx="0"
       originy="0"
       spacingx="1"
       spacingy="1"
       empcolor="#0099e5"
       empopacity="0.30196078"
       color="#0099e5"
       opacity="0.14901961"
       empspacing="0"
       dotted="false"
       gridanglex="30"
       gridanglez="30"
       visible="true" /></sodipodi:namedview><path
     id="path1"
     style="opacity:1;fill:#3ecc5f;fill-opacity:1;stroke:none;stroke-width:2.52849;stroke-linecap:round;stroke-linejoin:round;paint-order:stroke fill markers"
     d="M 7.9999997,0.16514549 A 7.8364028,7.8364028 0 0 0 0.16514522,7.9999999 7.8364028,7.8364028 0 0 0 7.9999997,15.834855 7.8364028,7.8364028 0 0 0 15.834855,7.9999999 7.8364028,7.8364028 0 0 0 7.9999997,0.16514549 Z M 5.1295236,5.0197467 c 1.100381,-0.028154 1.8789,0.5287207 2.1264292,1.1790905 A 0.10408525,0.10408525 0 0 1 7.1949653,6.3330103 0.10408525,0.10408525 0 0 1 7.0607922,6.2720229 C 6.8027185,5.5939463 5.8203179,4.9612204 4.3732793,5.3409472 A 0.10408525,0.10408525 0 0 1 4.2472382,5.2636971 0.10408525,0.10408525 0 0 1 4.3204239,5.137656 C 4.606319,5.0626327 4.8755901,5.0262442 5.1295236,5.0197467 Z m 6.7980674,3.2445322 c 0.639142,-0.026609 1.080478,0.1972599 1.374254,0.4919655 0.376024,0.377223 0.519929,0.8597262 0.589545,1.0530504 a 0.10408525,0.10408525 0 0 1 -0.06505,0.1341778 0.10408525,0.10408525 0 0 1 -0.134178,-0.060983 C 13.616605,9.6726963 13.486821,9.2350304 13.155468,8.9026252 12.82412,8.5702107 12.302186,8.3341321 11.390903,8.552953 a 0.10408525,0.10408525 0 0 1 -0.126035,-0.077251 0.10408525,0.10408525 0 0 1 0.07726,-0.1260411 c 0.210806,-0.050619 0.406521,-0.077932 0.585479,-0.085383 z M 5.1295236,11.35431 a 0.10408525,0.10408525 0 0 1 0.093514,0.04474 c 0.7870954,1.221856 1.7085529,1.653963 2.4354321,1.776762 0.1850849,0.03127 0.3577615,0.04187 0.5122947,0.04066 0.022862,-0.563119 0.2059226,-0.793537 0.3984512,-0.817233 0.2570389,-0.03161 0.5210201,0.29531 0.4228462,0.650533 a 0.10408525,0.10408525 0 0 1 0.069124,0.113839 c -2.082e-4,9.57e-4 -0.0077,0.02745 -0.00817,0.02847 -4.164e-4,0.0011 -0.00478,0.01078 -0.00817,0.01627 -0.00694,0.01066 -0.013877,0.01796 -0.020338,0.0244 -0.013106,0.01296 -0.023484,0.0242 -0.03659,0.03252 -0.026397,0.01652 -0.056696,0.03057 -0.093517,0.04471 -0.073642,0.02849 -0.1740687,0.0555 -0.2968052,0.07726 -0.2453801,0.04341 -0.5823247,0.06169 -0.9716394,-0.0039 C 6.847323,13.25166 5.8634296,12.778433 5.0482162,11.51292 a 0.10408525,0.10408525 0 0 1 0.032526,-0.142304 0.10408525,0.10408525 0 0 1 0.048789,-0.01627 z" /><path
     style="opacity:0.502598;fill:#526a58;fill-opacity:1;stroke:none;stroke-width:0.20817;stroke-linecap:round;stroke-linejoin:round;stroke-dasharray:none;stroke-opacity:1;paint-order:stroke fill markers"
     d="M 4.3809439,6.7080763 C 4.5716647,7.3257212 6.5983211,7.5993052 6.1912946,7.1712158 5.4239204,6.3641309 4.3809439,6.7080763 4.3809439,6.7080763 Z"
     id="path6"
     sodipodi:nodetypes="csc" /><path
     style="opacity:0.501347;fill:#526a58;fill-opacity:1;stroke:none;stroke-width:0.20817;stroke-linecap:round;stroke-linejoin:round;stroke-dasharray:none;stroke-opacity:1;paint-order:stroke fill markers"
     d="m 11.34424,10.029543 c 0.474201,0.679555 1.590633,0.761447 1.590633,0.761447 0,0 -0.04942,-0.517115 -0.562384,-0.761447 -0.41827,-0.1992271 -0.948005,-0.2046471 -1.028249,0 z"
     id="path7"
     sodipodi:nodetypes="ccsc" /><path
     style="opacity:1;fill:none;fill-opacity:1;stroke:#3ecc5f;stroke-width:0.117107;stroke-linecap:round;stroke-linejoin:round;stroke-dasharray:none;stroke-opacity:1;paint-order:stroke fill markers"
     d="m 8.6153247,12.665692 c 0.086551,0.233195 -0.00534,0.43299 -0.00534,0.43299"
     id="path11"
     sodipodi:nodetypes="cc" /></svg>
